<?xml version="1.0" encoding="UTF-8" standalone="no"?>
<!-- Created with Inkscape (http://www.inkscape.org/) -->

<svg
   xmlns:dc="http://purl.org/dc/elements/1.1/"
   xmlns:cc="http://creativecommons.org/ns#"
   xmlns:rdf="http://www.w3.org/1999/02/22-rdf-syntax-ns#"
   xmlns:svg="http://www.w3.org/2000/svg"
   xmlns="http://www.w3.org/2000/svg"
   xmlns:sodipodi="http://sodipodi.sourceforge.net/DTD/sodipodi-0.dtd"
   xmlns:inkscape="http://www.inkscape.org/namespaces/inkscape"
   version="1.1"
   id="svg869"
   width="1054.6667"
   height="106.66667"
   viewBox="0 0 1054.6667 106.66667"
   sodipodi:docname="logo.svg"
   inkscape:version="0.92.5 (2060ec1f9f, 2020-04-08)">
  <metadata
     id="metadata875">
    <rdf:RDF>
      <cc:Work
         rdf:about="">
        <dc:format>image/svg+xml</dc:format>
        <dc:type
           rdf:resource="http://purl.org/dc/dcmitype/StillImage" />
        <dc:title></dc:title>
      </cc:Work>
    </rdf:RDF>
  </metadata>
  <defs
     id="defs873" />
  <sodipodi:namedview
     pagecolor="#ffffff"
     bordercolor="#666666"
     borderopacity="1"
     objecttolerance="10"
     gridtolerance="10"
     guidetolerance="10"
     inkscape:pageopacity="0"
     inkscape:pageshadow="2"
     inkscape:window-width="1918"
     inkscape:window-height="1056"
     id="namedview871"
     showgrid="false"
     inkscape:zoom="0.89506945"
     inkscape:cx="555.84002"
     inkscape:cy="239.07936"
     inkscape:window-x="0"
     inkscape:window-y="0"
     inkscape:window-maximized="0"
     inkscape:current-layer="g833" />
  <g
     id="g833">
    <rect
       ry="20"
       rx="20"
       y="-571.24249"
       x="507.53107"
       height="512"
       width="512"
       id="rect829"
       style="opacity:1;vector-effect:none;fill:#007fb5;fill-opacity:0.98466259;stroke:none;stroke-width:9.69139767;stroke-linecap:round;stroke-linejoin:miter;stroke-miterlimit:4;stroke-dasharray:none;stroke-dashoffset:0;stroke-opacity:1" />
    <path
       sodipodi:nodetypes="ssssssscssssccsscsssscccsscccccccccsscccscsscssscsssssssscsssccssscsssccsssssssssssssssscscscssccscsssssssssss"
       style="fill:#ffffff;fill-opacity:1;stroke-width:4.66530561"
       d="m 738.07448,-156.57347 c -7.34929,-7.67099 -12.32218,-14.98739 -11.0509,-16.25867 1.27129,-1.27129 9.40277,5.00497 18.06995,13.94724 8.66718,8.94231 13.64011,16.25871 11.0509,16.25871 -2.58921,0 -10.7207,-6.27626 -18.06995,-13.94728 z m 191.34754,-18.59043 c -13.74213,-14.07324 -20.61885,-17.91092 -28.53435,-15.92427 -14.24798,3.57603 -31.66873,-13.82982 -28.09456,-28.07049 2.00852,-8.00248 -2.21324,-15.14586 -18.25694,-30.89154 -11.47826,-11.2651 -20.86955,-22.59018 -20.86955,-25.16686 0,-2.57669 10.16849,5.33069 22.59665,17.57198 18.8293,18.54616 24.59551,21.75521 34.58552,19.24788 16.76858,-4.20864 33.46882,12.48173 29.26165,29.2444 -2.47217,9.84994 0.52614,15.57357 16.89562,32.25285 10.94565,11.15279 17.79077,20.27781 15.21136,20.27781 -2.57945,0 -12.83734,-8.34377 -22.7954,-18.54176 z m -275.36968,-4.84738 c -23.14022,-3.5354 -64.52782,-17.86323 -85.62509,-29.64226 -9.61208,-5.3666 -6.41489,-5.8714 25.65917,-4.0513 32.81437,1.86209 38.0361,0.97345 50.01822,-8.51214 7.35838,-5.82524 15.75593,-16.14009 18.66124,-22.92188 l 5.28238,-12.33058 15.13682,15.27578 15.13683,15.2758 -10.36506,9.65659 c -5.70082,5.3111 -19.79992,12.40759 -31.3314,15.77 -19.57346,5.70736 -20.2982,6.47102 -10.91006,11.49538 5.53091,2.96006 14.91783,5.41407 20.85983,5.45336 5.942,0.0392 13.95274,2.10653 17.80162,4.59385 8.40808,5.43374 5.61285,5.42797 -30.3245,-0.0626 z m 52.77625,-3.12431 c 3.36777,-1.3477 7.3916,-1.18195 8.94186,0.36831 1.55022,1.55025 -1.20523,2.65289 -6.12322,2.45033 -5.43482,-0.22393 -6.54029,-1.32937 -2.81864,-2.81864 z m 82.05106,-8.37813 c 0,-6.13735 1.50022,-10.23161 3.33379,-9.09839 1.83357,1.13321 4.39703,-0.57695 5.69659,-3.80031 1.29955,-3.2234 2.52853,-1.39414 2.73113,4.06497 0.20259,5.45914 -2.36091,12.19072 -5.69659,14.95912 -4.68884,3.89139 -6.06492,2.50159 -6.06492,-6.12539 z m -46.18652,-19.59319 c -12.82957,-6.63445 -31.1407,-18.21338 -40.69138,-25.73101 -19.65621,-15.47199 -68.98793,-79.04967 -83.67486,-107.83842 l -9.74634,-19.1044 16.21133,17.18902 c 20.5114,21.74843 51.18335,35.78031 78.49911,35.91205 34.77855,0.1676 72.33939,-28.58036 94.3458,-72.20976 10.72595,-21.26504 26.68133,-72.33474 26.84109,-85.91236 0.23548,-20.01542 7.43449,-1.90561 13.93671,35.05907 8.91589,50.68618 4.42474,106.86012 -11.07671,138.5439 -10.86962,22.21673 -16.12508,27.56331 -35.86083,36.48277 -12.71861,5.74809 -23.12472,12.54818 -23.12472,15.11132 0,2.56314 5.88878,10.06159 13.08622,16.66326 7.1974,6.60166 9.65634,9.3788 5.46428,6.17139 -10.58455,-8.09835 -16.24992,-7.30433 -9.12635,1.27909 13.3174,16.04642 -0.87107,11.02598 -20.82823,-7.3699 -11.79415,-10.87147 -20.3439,-20.8663 -18.99946,-22.21072 1.34442,-1.34444 -0.8013,-7.39806 -4.7683,-13.45249 -7.09261,-10.82468 -6.99575,-10.94743 5.81527,-7.37035 27.0392,7.54985 55.90889,4.2838 68.74745,-7.77743 13.8998,-13.05815 26.00847,-49.24001 25.73751,-76.90616 l -0.1858,-18.9808 -9.10889,18.25431 c -12.90542,25.8625 -21.25031,33.80791 -49.58753,47.21354 -17.02313,8.05326 -36.73676,12.714 -62.02472,14.66405 l -37.07015,2.85867 6.85653,13.25906 c 11.8148,22.84725 35.50736,46.43282 61.22168,60.94504 13.62383,7.68884 24.7706,14.82896 24.7706,15.867 0,2.67193 0.12386,2.72312 -25.65921,-10.60974 z m 18.66124,-27.01345 c -7.69775,-6.30978 -16.0953,-11.47231 -18.66124,-11.47231 -2.56591,0 1.63287,5.16253 9.33062,11.47231 7.69776,6.30978 16.09531,11.47231 18.66121,11.47231 2.56594,0 -1.63283,-5.16253 -9.33059,-11.47231 z m -147.06012,-46.90843 c -34.67258,-34.85995 -41.0974,-39.42688 -52.07776,-37.0185 -17.8253,3.90972 -33.48176,-12.21627 -29.49289,-30.37744 1.64732,-7.50013 0.76711,-14.57206 -2.02871,-16.29999 -2.71615,-1.67867 -4.93846,-5.35299 -4.93846,-8.16515 0,-2.81216 3.75136,-1.71814 8.33632,2.43123 4.86631,4.40392 12.45458,6.46734 18.22992,4.95704 14.67,-3.83628 31.12094,14.17961 27.20282,29.79062 -2.64408,10.53476 2.11999,17.2126 37.98719,53.24673 22.55574,22.66072 39.95816,41.20132 38.67204,41.20132 -1.28612,0 -20.13683,-17.89462 -41.89047,-39.76586 z m 368.52657,-32.68628 c -12.96676,-13.37824 -18.33392,-15.94747 -28.60311,-13.69199 -17.51648,3.84727 -33.95119,-12.39132 -29.69674,-29.34233 2.63368,-10.49334 -1.93049,-17.01967 -35.50631,-50.77082 -21.19066,-21.30129 -37.38341,-39.87471 -35.98389,-41.27424 1.39953,-1.39948 19.72774,15.3538 40.72934,37.2296 32.22007,33.56115 39.91954,39.33874 49.29033,36.98679 15.86283,-3.98131 32.45289,13.23202 28.38263,29.44898 -2.42759,9.67234 0.3513,15.39121 14.53844,29.92019 9.64683,9.87927 16.47569,17.96229 15.17539,17.96229 -1.30031,0 -9.54706,-7.4108 -18.32608,-16.46847 z m -235.60404,-44.32835 c -10.76863,-11.24005 -16.15331,-13.57212 -26.2281,-11.35933 -17.55053,3.85475 -33.9924,-12.36343 -29.73418,-29.32963 2.62308,-10.45114 -1.76401,-16.84962 -33.30972,-48.58144 -19.98187,-20.09974 -33.96309,-36.54498 -31.06933,-36.54498 2.89373,0 20.03379,15.81818 38.08898,35.15151 28.15768,30.15099 34.47065,34.7392 44.37696,32.25286 16.29988,-4.09101 32.96388,12.85269 28.8319,29.31584 -2.3692,9.43951 0.1774,15.20985 12.17414,27.58753 8.34345,8.60829 14.1012,15.65142 12.79496,15.65142 -1.30628,0 -8.47278,-6.36471 -15.92561,-14.14378 z"
       id="path887"
       inkscape:connector-curvature="0" />
  </g>
</svg>
